<svg xmlns="http://www.w3.org/2000/svg" viewBox="0 0 512 512" role="img" aria-label="Pocket Launch icon">
  <rect width="512" height="512" rx="112" fill="#111827"/>
  <path d="M128 314c88-6 150-68 158-156 58 40 92 95 98 166-72 6-132 36-180 90-22-43-48-75-76-100Z" fill="#38bdf8"/>
  <path d="M267 95c44 18 84 58 102 102-38 12-77 12-117 0-12-40-12-79 0-117 5 4 10 9 15 15Z" fill="#fff"/>
  <circle cx="318" cy="148" r="22" fill="#111827"/>
  <path d="M142 366c36 3 64 31 67 67-43 12-77 13-103 4-9-26-8-60 4-103 10 15 21 26 32 32Z" fill="#facc15"/>
</svg>
